<?xml version='1.0' encoding='utf-8'?>
<svg xmlns="http://www.w3.org/2000/svg" version="1.0" width="600.000000pt" height="600.000000pt" viewBox="0 0 600.000000 600.000000" preserveAspectRatio="xMidYMid meet">
<metadata stroke-width="10.0" stroke="blue" fill="black">
Created by potrace 1.16, written by Peter Selinger 2001-2019
</metadata>
<g transform="translate(0.000000,600.000000) scale(0.100000,-0.100000)" fill="black" stroke="blue" stroke-width="10.0">
<path d="M4179 5316 l-186 -11 -242 -237 c-134 -131 -247 -238 -252 -238 -6 0 -146 101 -312 225 l-301 225 -305 0 -304 0 6 -1202 c4 -661 7 -1727 7 -2370 l0 -1168 305 0 c264 0 305 2 305 15 0 8 6 15 13 15 20 0 27 382 27 1498 0 593 4 942 10 940 5 -1 111 -91 236 -198 359 -308 363 -311 364 -237 0 15 5 27 10 27 12 0 14 469 2 486 -4 6 -142 132 -307 279 -165 147 -303 273 -306 279 -4 6 -10 224 -13 485 l-7 474 38 -29 c21 -16 164 -124 317 -242 274 -208 279 -212 300 -195 11 10 201 190 422 400 l401 381 6 138 c4 75 7 168 7 206 0 68 0 68 -27 66 -16 0 -112 -6 -214 -12z m181 -204 l0 -159 -107 -105 c-60 -57 -205 -196 -323 -308 -118 -112 -249 -237 -291 -278 l-76 -74 -342 262 c-189 144 -344 260 -346 258 -2 -2 0 -204 5 -448 5 -245 10 -490 10 -545 l1 -100 308 -275 308 -274 7 -141 c8 -192 8 -325 -2 -325 -5 0 -28 20 -53 44 -24 24 -161 144 -304 266 l-260 222 -6 -289 c-3 -158 -7 -727 -8 -1264 l-1 -976 -172 -6 c-95 -4 -214 -7 -264 -7 l-91 0 -7 92 c-3 50 -6 1094 -6 2320 l0 2228 262 0 261 0 314 -235 c172 -129 317 -236 322 -237 4 -2 124 109 266 247 l257 249 112 7 c61 3 137 6 169 7 l57 2 0 -158z" stroke-width="10.0" stroke="blue" fill="black" />
</g>
</svg>