<?xml version='1.0' encoding='utf-8'?>
<svg xmlns="http://www.w3.org/2000/svg" viewBox="0 0 600 600" height="600.000000pt" width="600.000000pt"><g transform="matrix(-1 0 0 -1 600 600)" stroke-width="10.0" stroke="red" fill="black"><metadata stroke-width="10.0" stroke="red" fill="black">Created by potrace 1.16, written by Peter Selinger 2001-2019</metadata><g transform="translate(0.000000,600.000000) scale(0.100000,-0.100000)" fill="black" stroke="red" stroke-width="10.0"><path d="M2283 4078 c4 -661 7 -1727 7 -2370 l0 -1168 305 0 c264 0 305 2 305 15 0 8 7 15 15 15 19 0 17 -117 24 1277 l6 1173 230 -186 c127 -102 260 -208 298 -235 59 -44 67 -47 67 -28 0 11 7 35 15 53 13 26 15 73 13 266 l-3 235 -287 240 c-158 132 -298 249 -311 261 l-24 21 -7 473 c-4 259 -6 474 -4 475 2 2 149 -108 328 -245 179 -136 327 -246 329 -244 2 2 0 161 -4 354 -6 285 -10 348 -20 340 -10 -8 -93 48 -346 235 l-333 245 -304 0 -305 0 6 -1202z m913 905 l334 -247 0 -259 c0 -204 -3 -257 -12 -251 -7 4 -154 115 -326 247 -173 131 -315 237 -317 235 -2 -2 0 -204 5 -448 5 -245 10 -490 10 -545 l1 -100 308 -256 308 -257 6 -113 c9 -156 9 -359 -1 -359 -4 0 -24 16 -44 35 -20 20 -157 132 -305 250 l-268 215 -6 -288 c-3 -158 -7 -726 -8 -1263 l-1 -976 -172 -6 c-95 -4 -214 -7 -264 -7 l-91 0 -7 92 c-3 50 -6 1094 -6 2320 l0 2228 261 0 261 0 334 -247z" stroke-width="10.0" stroke="red" fill="black" /></g></g></svg>