<?xml version='1.0' encoding='utf-8'?>
<svg xmlns="http://www.w3.org/2000/svg" viewBox="0 0 600 600" height="600.000000pt" width="600.000000pt"><g transform="matrix(-1 0 0 -1 600 600)" stroke-width="10.0" stroke="red" fill="black"><metadata stroke-width="10.0" stroke="red" fill="black">Created by potrace 1.16, written by Peter Selinger 2001-2019</metadata><g transform="translate(0.000000,600.000000) scale(0.100000,-0.100000)" fill="black" stroke="red" stroke-width="10.0"><path d="M2104 4769 c3 -288 9 -1361 12 -2383 l7 -1859 120 7 c66 3 155 6 199 6 63 0 78 3 78 15 0 8 7 15 15 15 11 0 15 12 16 43 l1 42 839 779 839 778 -134 147 c-376 412 -576 635 -576 641 0 3 159 176 353 384 193 209 353 382 355 385 1 3 -337 345 -751 759 l-752 752 -314 7 -314 6 7 -524z m1256 -202 c366 -363 695 -690 732 -726 l68 -66 -107 -115 c-58 -63 -220 -238 -360 -387 l-254 -273 338 -373 c186 -205 346 -382 356 -393 17 -20 2 -35 -807 -787 -819 -762 -824 -766 -830 -811 l-7 -46 -153 0 -154 0 -6 473 c-3 259 -9 1305 -12 2324 l-6 1852 268 -6 269 -6 665 -660z" stroke-width="10.0" stroke="red" fill="black" /><path d="M2704 4335 c3 -192 8 -762 11 -1265 3 -503 8 -1097 11 -1320 l6 -406 26 -12 c24 -11 29 -9 63 25 20 21 217 221 438 445 220 224 401 412 401 417 0 8 -535 594 -681 747 l-39 40 341 388 340 387 -403 397 c-222 219 -429 422 -462 452 l-58 55 6 -350z m836 -556 c0 -4 -151 -178 -336 -388 l-335 -381 18 -23 c10 -13 171 -189 358 -391 187 -202 340 -371 340 -375 0 -11 -794 -816 -799 -810 -3 4 -26 2571 -26 2962 l0 179 390 -384 c215 -210 390 -386 390 -389z" stroke-width="10.0" stroke="red" fill="black" /></g></g></svg>