<?xml version='1.0' encoding='utf-8'?>
<svg xmlns="http://www.w3.org/2000/svg" version="1.0" width="600.000000pt" height="600.000000pt" viewBox="0 0 600.000000 600.000000" preserveAspectRatio="xMidYMid meet">
<metadata stroke-width="10.0" stroke="blue" fill="black">
Created by potrace 1.16, written by Peter Selinger 2001-2019
</metadata>
<g transform="translate(0.000000,600.000000) scale(0.100000,-0.100000)" fill="black" stroke="blue" stroke-width="10.0">
<path d="M2033 4298 c4 -541 7 -1607 7 -2370 l0 -1388 305 0 c264 0 305 2 305 15 0 8 6 15 14 15 23 0 26 49 26 370 0 481 12 1181 21 1178 4 -2 343 -353 754 -780 l746 -778 397 0 397 1 -71 67 c-38 37 -559 543 -1157 1126 l-1087 1058 0 92 c0 50 -7 564 -15 1141 -8 578 -15 1092 -15 1143 l0 92 -317 0 -316 0 6 -982z m578 660 c0 -145 6 -692 13 -1217 l13 -954 129 -126 c71 -70 570 -556 1109 -1080 539 -525 982 -957 983 -962 2 -5 -134 -9 -306 -9 l-310 0 -39 39 c-21 22 -377 393 -792 825 -415 432 -756 784 -758 782 -2 -2 -8 -374 -14 -827 -5 -452 -11 -824 -12 -825 -1 -1 -119 -5 -263 -9 l-261 -8 -6 933 c-4 513 -7 1556 -7 2317 l0 1383 260 0 260 0 1 -262z" stroke-width="10.0" stroke="blue" fill="black" />
</g>
</svg>