<?xml version='1.0' encoding='utf-8'?>
<svg xmlns="http://www.w3.org/2000/svg" version="1.0" width="600.000000pt" height="600.000000pt" viewBox="0 0 600.000000 600.000000" preserveAspectRatio="xMidYMid meet">
<metadata stroke-width="10.0" stroke="blue" fill="black">
Created by potrace 1.16, written by Peter Selinger 2001-2019
</metadata>
<g transform="translate(0.000000,600.000000) scale(0.100000,-0.100000)" fill="black" stroke="blue" stroke-width="10.0">
<path d="M1493 4418 c4 -479 7 -1548 7 -2375 l0 -1503 218 2 217 3 5 150 5 150 573 1005 c315 553 576 1008 580 1012 4 4 265 -476 580 -1066 l572 -1072 0 -92 0 -92 196 0 197 0 -7 2263 c-3 1244 -9 2310 -12 2370 l-6 107 -337 0 -336 -1 -445 -848 c-245 -467 -447 -847 -450 -844 -3 2 -217 385 -475 851 l-470 847 -309 3 -309 2 6 -872z m1056 -47 c265 -478 488 -877 495 -886 11 -15 76 103 476 864 l463 881 292 0 293 0 6 -1072 c3 -590 9 -1632 12 -2315 l6 -1243 -131 -1 c-72 -1 -137 -2 -143 -3 -9 -1 -15 24 -18 80 l-5 81 -594 1112 c-522 977 -596 1111 -608 1095 -48 -65 -1194 -2098 -1189 -2110 3 -8 2 -14 -3 -14 -4 0 -11 -52 -14 -116 -4 -64 -8 -118 -9 -119 -2 -1 -73 -6 -159 -10 l-156 -7 -6 1074 c-4 590 -7 1634 -7 2320 l0 1247 153 4 c83 1 200 4 258 5 l106 2 482 -869z" stroke-width="10.0" stroke="blue" fill="black" />
<path d="M3663 4094 c-237 -467 -427 -852 -422 -855 5 -3 7 -13 4 -21 -4 -10 111 -229 306 -580 516 -933 508 -918 535 -918 13 0 24 3 24 6 0 12 -120 232 -472 868 -191 346 -348 633 -348 637 0 4 168 337 373 740 l372 733 6 -114 c4 -63 10 -707 13 -1430 7 -1116 10 -1317 22 -1330 46 -48 46 -111 21 2839 l-2 274 -432 -849z" stroke-width="10.0" stroke="blue" fill="black" />
<path d="M2070 4795 c0 -66 9 -781 20 -1590 11 -808 20 -1508 20 -1555 l1 -85 401 800 c243 485 402 813 404 834 2 28 -67 172 -371 780 -205 410 -396 789 -424 841 l-51 95 0 -120z m657 -1300 l145 -290 -353 -705 -354 -705 -2 65 c-5 118 -33 2411 -33 2615 l0 200 226 -445 c125 -245 292 -576 371 -735z" stroke-width="10.0" stroke="blue" fill="black" />
</g>
</svg>