<?xml version='1.0' encoding='utf-8'?>
<svg xmlns="http://www.w3.org/2000/svg" viewBox="0 0 600 600" height="600.000000pt" width="600.000000pt"><g transform="matrix(-1 0 0 -1 600 600)" stroke-width="10.0" stroke="red" fill="black"><metadata stroke-width="10.0" stroke="red" fill="black">Created by potrace 1.16, written by Peter Selinger 2001-2019</metadata><g transform="translate(0.000000,600.000000) scale(0.100000,-0.100000)" fill="black" stroke="red" stroke-width="10.0"><path d="M1350 3723 c0 -857 3 -1926 7 -2377 l6 -819 126 7 c69 3 204 9 299 12 135 6 172 10 172 20 0 8 7 14 16 14 14 0 14 187 8 1910 -4 1051 -5 1910 -2 1910 3 0 243 -250 533 -555 289 -305 530 -555 535 -555 5 0 258 254 562 565 l553 565 6 -672 c4 -370 10 -1241 14 -1935 l7 -1262 274 -3 274 -3 -1 265 c-4 1235 -25 4459 -29 4463 -3 2 -117 2 -253 -1 l-249 -5 -596 -619 -596 -620 -21 25 c-11 14 -252 295 -534 626 l-515 601 -298 0 -298 0 0 -1557z m1114 867 c296 -347 542 -633 546 -635 4 -3 279 278 611 623 l604 627 60 6 c33 4 131 7 218 8 l157 1 0 -162 c0 -90 5 -824 10 -1633 5 -808 10 -1774 10 -2145 l1 -675 -214 -3 -214 -2 -7 292 c-3 161 -9 905 -12 1653 -4 748 -9 1505 -13 1683 l-6 322 -344 -352 c-190 -194 -452 -462 -583 -595 l-239 -241 -557 587 -557 587 -3 -1962 -2 -1962 -28 -6 c-15 -3 -132 -8 -259 -12 l-233 -7 0 824 c0 453 -3 1496 -7 2317 l-6 1492 264 0 264 0 539 -630z" stroke-width="10.0" stroke="red" fill="black" /></g></g></svg>