<?xml version='1.0' encoding='utf-8'?>
<svg xmlns="http://www.w3.org/2000/svg" version="1.0" width="600.000000pt" height="600.000000pt" viewBox="0 0 600.000000 600.000000" preserveAspectRatio="xMidYMid meet">
<metadata stroke-width="10.0" stroke="blue" fill="black">
Created by potrace 1.16, written by Peter Selinger 2001-2019
</metadata>
<g transform="translate(0.000000,600.000000) scale(0.100000,-0.100000)" fill="black" stroke="blue" stroke-width="10.0">
<path d="M2895 5199 c-50 -50 -250 -247 -445 -438 l-355 -348 -450 423 -450 422 -3 -335 -2 -335 426 -422 c235 -231 430 -422 434 -424 4 -2 137 123 296 277 l289 279 6 -181 c4 -100 9 -909 13 -1797 3 -888 9 -1650 12 -1693 l6 -77 294 0 c250 0 294 2 294 15 0 7 7 18 16 23 14 8 16 193 21 1881 4 1029 10 1870 14 1869 4 -2 145 -136 313 -298 169 -162 315 -296 325 -298 27 -5 178 161 658 723 l230 270 7 248 8 248 -118 -3 -118 -3 -346 -402 c-190 -221 -350 -401 -356 -400 -7 1 -215 196 -464 432 -249 237 -455 431 -459 433 -3 1 -47 -39 -96 -89z m559 -424 c252 -240 462 -434 467 -433 4 2 168 189 364 416 l356 412 77 0 77 0 -6 -204 c-4 -157 -8 -208 -20 -223 -98 -124 -734 -857 -788 -907 l-30 -29 -48 43 c-26 24 -183 174 -348 334 l-300 291 -6 -595 c-3 -327 -7 -1196 -8 -1931 l-1 -1336 -142 -6 c-79 -4 -195 -7 -259 -7 l-117 0 -6 753 c-4 413 -10 1276 -14 1917 l-7 1165 -320 -311 -320 -311 -401 394 -401 393 -6 143 c-10 201 -9 389 2 385 5 -1 188 -172 407 -378 219 -206 408 -383 421 -393 l23 -19 443 436 c243 240 444 436 447 436 3 0 212 -196 464 -435z" stroke-width="10.0" stroke="blue" fill="black" />
</g>
</svg>