<?xml version='1.0' encoding='utf-8'?>
<svg xmlns="http://www.w3.org/2000/svg" version="1.0" width="600.000000pt" height="600.000000pt" viewBox="0 0 600.000000 600.000000" preserveAspectRatio="xMidYMid meet">
<metadata stroke-width="10.0" stroke="blue" fill="black">
Created by potrace 1.16, written by Peter Selinger 2001-2019
</metadata>
<g transform="translate(0.000000,600.000000) scale(0.100000,-0.100000)" fill="black" stroke="blue" stroke-width="10.0">
<path d="M4172 5317 l-183 -9 -525 -520 c-288 -286 -524 -519 -524 -517 -3 33 -30 858 -30 922 l0 87 -317 0 -316 0 6 -1487 c4 -817 7 -1879 7 -2360 0 -769 2 -873 15 -873 8 0 15 -7 15 -17 0 -15 25 -16 302 -9 166 3 304 9 307 11 2 3 12 311 21 686 l17 681 711 711 712 712 -2 422 -3 422 -719 -745 c-395 -410 -720 -744 -722 -742 -1 2 0 196 3 432 l6 428 446 416 c245 229 573 535 729 680 l282 263 0 210 0 209 -27 -2 c-16 -1 -110 -6 -211 -11z m187 -214 l-1 -168 -728 -677 -728 -677 -7 -343 c-3 -189 -5 -420 -3 -513 l3 -170 715 742 c393 408 718 742 723 742 4 1 7 -151 7 -336 l0 -338 -714 -715 -714 -715 -16 -669 c-9 -368 -17 -670 -19 -671 -1 -1 -119 -5 -263 -8 l-261 -6 -6 607 c-4 334 -8 1379 -9 2322 l-2 1715 256 3 257 2 5 -52 c3 -29 10 -231 16 -448 5 -217 13 -439 16 -494 l6 -99 559 559 558 558 118 7 c65 3 144 6 176 7 l57 2 -1 -167z" stroke-width="10.0" stroke="blue" fill="black" />
</g>
</svg>