<?xml version='1.0' encoding='utf-8'?>
<svg xmlns="http://www.w3.org/2000/svg" version="1.0" width="600.000000pt" height="600.000000pt" viewBox="0 0 600.000000 600.000000" preserveAspectRatio="xMidYMid meet">
<metadata stroke-width="10.0" stroke="blue" fill="black">
Created by potrace 1.16, written by Peter Selinger 2001-2019
</metadata>
<g transform="translate(0.000000,600.000000) scale(0.100000,-0.100000)" fill="black" stroke="blue" stroke-width="10.0">
<path d="M3494 4535 c-187 -389 -344 -708 -350 -708 -5 -1 -174 309 -376 688 l-368 690 -372 7 c-205 3 -373 6 -374 5 -4 -7 25 -289 30 -294 3 -4 60 -9 126 -13 66 -3 124 -10 129 -15 4 -6 212 -387 460 -848 l452 -837 -507 -1003 c-278 -551 -507 -1003 -508 -1005 -2 -1 -47 -5 -101 -9 l-97 -6 3 -343 c2 -188 7 -345 11 -349 4 -4 45 -2 91 5 l84 12 603 1098 c332 604 606 1097 610 1095 3 -2 241 -505 529 -1118 l524 -1115 146 5 c80 2 152 7 160 9 12 4 13 63 8 388 l-6 384 -532 1127 -531 1127 333 734 334 734 132 0 132 0 3 123 c2 67 3 123 3 123 0 1 -99 4 -220 8 l-220 7 -341 -706z m695 639 c29 -6 31 -9 31 -53 0 -93 4 -90 -133 -93 l-122 -3 -343 -757 -344 -756 536 -1138 536 -1137 0 -347 0 -347 -37 -7 c-21 -3 -72 -6 -113 -6 l-75 0 -540 1150 c-296 633 -542 1150 -545 1150 -3 -1 -284 -510 -625 -1133 l-621 -1132 -43 -8 c-23 -5 -44 -7 -46 -5 -1 2 -4 134 -6 293 l-4 290 84 5 c67 5 86 10 98 25 7 11 241 471 519 1023 391 777 503 1006 494 1017 -8 10 -8 14 2 17 7 3 -159 321 -454 869 l-467 864 -38 2 c-21 2 -75 5 -120 9 l-82 6 -5 41 c-3 23 -7 66 -9 95 l-4 52 216 0 c119 0 266 -3 328 -7 l112 -6 388 -729 388 -730 90 184 c50 101 212 437 360 746 l270 561 146 1 c81 0 161 -3 178 -6z" stroke-width="10.0" stroke="blue" fill="black" />
</g>
</svg>