<?xml version='1.0' encoding='utf-8'?>
<svg xmlns="http://www.w3.org/2000/svg" version="1.0" width="600.000000pt" height="600.000000pt" viewBox="0 0 600.000000 600.000000" preserveAspectRatio="xMidYMid meet">
<metadata stroke-width="10.0" stroke="blue" fill="black">
Created by potrace 1.16, written by Peter Selinger 2001-2019
</metadata>
<g transform="translate(0.000000,600.000000) scale(0.100000,-0.100000)" fill="black" stroke="blue" stroke-width="10.0">
<path d="M4064 4783 c14 -1228 18 -1374 32 -1362 12 10 14 -18 14 -165 0 -98 -3 -175 -7 -173 -5 3 -512 238 -1128 522 -616 284 -1136 524 -1155 533 l-35 17 -9 545 c-4 300 -10 546 -11 548 -3 4 -354 31 -402 32 l-33 0 0 -2355 0 -2355 83 0 c45 0 146 -3 225 -7 128 -5 142 -4 142 10 0 10 7 17 15 17 8 0 16 1 16 3 1 1 7 489 13 1084 6 595 14 1084 18 1088 4 4 512 -258 1130 -583 l1123 -590 3 -511 2 -511 335 0 335 0 0 148 c0 117 -58 4590 -60 4600 0 1 -147 2 -326 2 l-327 0 7 -537z m596 395 c0 -164 49 -3973 54 -4270 l6 -288 -278 0 -279 0 -6 307 c-4 170 -7 396 -7 503 l0 195 -1182 621 -1183 621 -7 -621 c-4 -341 -10 -847 -14 -1123 l-6 -503 -189 0 -189 0 0 2301 0 2302 133 -7 c72 -4 146 -9 163 -12 l31 -6 7 -90 c3 -50 7 -215 7 -367 1 -152 4 -354 8 -450 l6 -175 475 -219 c1064 -490 1892 -867 1905 -867 8 0 16 4 20 9 5 9 -9 1404 -20 1948 l-5 272 127 4 c71 1 194 4 276 5 l147 2 0 -92z" stroke-width="10.0" stroke="blue" fill="black" />
<path d="M1780 3790 c0 -5 -7 -10 -15 -10 -13 0 -15 -29 -14 -202 1 -112 4 -229 8 -262 l6 -58 1184 -609 c651 -335 1185 -608 1187 -606 3 3 -16 641 -20 644 -7 7 -2319 1113 -2327 1113 -5 0 -9 -4 -9 -10z m1161 -599 l1124 -539 8 -213 c4 -118 6 -235 5 -261 l-3 -47 -1125 579 c-619 319 -1128 581 -1131 582 -10 5 -20 438 -11 438 5 0 515 -243 1133 -539z" stroke-width="10.0" stroke="blue" fill="black" />
</g>
</svg>