<?xml version='1.0' encoding='utf-8'?>
<svg xmlns="http://www.w3.org/2000/svg" version="1.0" width="600.000000pt" height="600.000000pt" viewBox="0 0 600.000000 600.000000" preserveAspectRatio="xMidYMid meet">
<metadata stroke-width="10.0" stroke="blue" fill="black">
Created by potrace 1.16, written by Peter Selinger 2001-2019
</metadata>
<g transform="translate(0.000000,600.000000) scale(0.100000,-0.100000)" fill="black" stroke="blue" stroke-width="10.0">
<path d="M2752 3330 c2 -1089 1 -1980 -2 -1979 -3 0 -63 70 -135 155 l-130 155 -40 -5 c-22 -3 -183 -11 -357 -17 -175 -7 -318 -16 -318 -20 0 -3 227 -246 506 -538 l505 -531 182 0 c260 0 407 10 407 27 0 7 7 13 17 13 15 0 16 145 10 2080 -5 1951 -5 2079 11 2071 9 -5 145 -97 302 -204 157 -107 286 -193 287 -192 2 1 0 112 -4 246 l-6 245 -313 226 -314 226 -122 6 c-68 3 -205 8 -306 10 l-182 5 2 -1979z m593 1901 c6 -5 139 -101 297 -214 l286 -207 7 -73 c3 -39 5 -120 3 -179 l-3 -107 -294 200 c-161 109 -296 199 -299 199 -3 0 -3 -954 1 -2120 l6 -2120 -200 -2 c-109 -1 -232 -3 -272 -3 l-72 0 -455 478 c-250 263 -456 481 -458 486 -1 4 127 13 285 20 277 12 288 12 303 -6 145 -178 276 -323 290 -323 10 0 21 8 25 17 3 10 6 908 5 1997 l-1 1978 268 -7 c147 -4 273 -10 278 -14z" stroke-width="10.0" stroke="blue" fill="black" />
</g>
</svg>