<?xml version='1.0' encoding='utf-8'?>
<svg xmlns="http://www.w3.org/2000/svg" version="1.0" width="600.000000pt" height="600.000000pt" viewBox="0 0 600.000000 600.000000" preserveAspectRatio="xMidYMid meet">
<metadata stroke-width="10.0" stroke="blue" fill="black">
Created by potrace 1.16, written by Peter Selinger 2001-2019
</metadata>
<g transform="translate(0.000000,600.000000) scale(0.100000,-0.100000)" fill="black" stroke="blue" stroke-width="10.0">
<path d="M2728 4599 l-3 -684 -245 240 c-135 132 -267 260 -293 285 l-47 44 0 -350 0 -350 284 -274 c156 -151 284 -280 285 -285 1 -6 -125 -145 -280 -310 l-280 -300 6 -260 c3 -143 8 -283 11 -311 l5 -51 34 6 c28 5 81 51 284 249 l250 243 3 -975 c2 -536 5 -976 8 -978 3 -3 136 -2 295 1 283 6 291 7 313 29 l22 22 2 969 3 969 323 -259 322 -260 0 309 0 308 -306 294 -307 294 29 24 c305 262 574 508 574 526 1 12 9 165 19 341 11 176 18 322 16 323 -2 2 -152 -120 -334 -272 l-330 -275 -5 52 c-3 29 -10 340 -16 691 -5 352 -13 642 -15 645 -3 2 -145 7 -315 9 l-310 5 -2 -684z m358 621 l221 0 8 -437 c4 -241 11 -569 14 -729 l6 -292 329 275 c181 150 330 272 331 271 1 -2 -4 -100 -11 -218 -7 -118 -13 -238 -13 -266 l-1 -51 -315 -278 c-309 -272 -315 -278 -298 -298 10 -11 154 -150 321 -309 l302 -290 0 -234 c0 -129 -2 -234 -5 -234 -4 0 -149 114 -323 254 l-317 254 -3 -1017 -2 -1018 -197 -6 c-108 -4 -227 -7 -265 -7 l-68 0 0 393 c0 215 -3 672 -7 1015 l-6 622 -281 -277 -280 -278 -8 40 c-4 22 -7 142 -7 267 l-1 228 288 306 c158 169 288 310 290 314 1 4 -132 139 -298 300 l-300 293 0 269 c0 147 3 268 8 267 4 0 135 -126 292 -279 l285 -279 2 707 c2 389 5 713 8 721 4 10 16 12 43 7 20 -3 137 -6 258 -6z" stroke-width="10.0" stroke="blue" fill="black" />
</g>
</svg>