<?xml version='1.0' encoding='utf-8'?>
<svg xmlns="http://www.w3.org/2000/svg" version="1.0" width="600.000000pt" height="600.000000pt" viewBox="0 0 600.000000 600.000000" preserveAspectRatio="xMidYMid meet">
<metadata stroke-width="10.0" stroke="blue" fill="black">
Created by potrace 1.16, written by Peter Selinger 2001-2019
</metadata>
<g transform="translate(0.000000,600.000000) scale(0.100000,-0.100000)" fill="black" stroke="blue" stroke-width="10.0">
<path d="M2382 5283 l-103 -4 7 -2367 c4 -1302 8 -2368 9 -2370 2 -2 138 0 304 4 246 6 301 10 301 21 0 7 7 16 16 20 14 5 15 186 8 2042 -7 1971 -6 2035 11 2021 10 -8 99 -85 198 -171 l180 -156 396 -13 c219 -7 403 -11 411 -8 8 2 -202 206 -511 496 l-524 492 -300 -2 c-165 -1 -346 -4 -403 -5z m1133 -473 c226 -210 426 -398 445 -417 l35 -35 -280 6 c-421 10 -347 -17 -621 222 l-233 203 4 -1217 c3 -669 7 -1609 10 -2088 l4 -872 -152 -6 c-84 -3 -202 -7 -263 -9 l-112 -2 -6 1030 c-3 567 -7 1609 -9 2317 l-3 1288 360 2 c353 3 362 3 386 -18 14 -11 210 -193 435 -404z" stroke-width="10.0" stroke="blue" fill="black" />
</g>
</svg>