<?xml version='1.0' encoding='utf-8'?>
<svg xmlns="http://www.w3.org/2000/svg" version="1.0" width="600.000000pt" height="600.000000pt" viewBox="0 0 600.000000 600.000000" preserveAspectRatio="xMidYMid meet">
<metadata stroke-width="10.0" stroke="blue" fill="black">
Created by potrace 1.16, written by Peter Selinger 2001-2019
</metadata>
<g transform="translate(0.000000,600.000000) scale(0.100000,-0.100000)" fill="black" stroke="blue" stroke-width="10.0">
<path d="M1325 2903 c4 -1303 10 -2371 14 -2374 11 -10 596 10 599 21 2 5 9 10 17 10 7 0 15 17 19 37 3 21 6 263 6 539 0 275 3 705 7 954 l6 453 550 503 c543 498 550 503 571 486 12 -9 264 -223 559 -476 l537 -459 -7 -1040 -6 -1040 108 6 c59 4 191 7 293 7 l185 0 -7 2347 c-4 1292 -9 2349 -10 2350 -1 2 -115 0 -253 -4 l-251 -6 -583 -591 c-321 -325 -587 -591 -590 -591 -3 0 -260 240 -570 534 l-564 535 -3 83 -3 83 -315 0 -316 0 7 -2367z m573 2244 l3 -67 590 -560 c325 -308 594 -560 599 -560 5 0 277 272 606 605 l598 605 211 0 212 0 5 -2287 c3 -1259 4 -2290 2 -2292 -2 -2 -110 -6 -239 -9 l-235 -5 6 1024 7 1024 -583 498 c-321 273 -587 496 -591 495 -4 -2 -264 -238 -577 -525 l-570 -522 -6 -73 c-3 -40 -8 -484 -10 -987 -3 -503 -7 -915 -8 -916 -2 -1 -121 -5 -264 -9 l-262 -7 -6 993 c-3 546 -8 1590 -11 2321 l-6 1327 263 -2 263 -3 3 -68z" stroke-width="10.0" stroke="blue" fill="black" />
<path d="M3743 4300 c-282 -279 -513 -510 -513 -513 0 -4 233 -223 518 -489 l517 -482 3 134 c32 1467 37 1840 22 1840 -9 0 -20 4 -25 9 -6 6 -208 -187 -522 -499z m491 -431 c-8 -464 -18 -862 -22 -883 l-7 -39 -447 417 c-247 230 -448 420 -448 424 0 7 933 931 937 928 2 -1 -4 -382 -13 -847z" stroke-width="10.0" stroke="blue" fill="black" />
<path d="M1933 4745 c-19 -8 -23 -18 -23 -60 0 -72 30 -1697 33 -1777 l2 -67 499 478 c275 262 501 482 503 488 3 8 -824 803 -951 913 -35 30 -44 34 -63 25z m491 -504 c245 -233 446 -427 446 -431 0 -10 -857 -830 -868 -830 -5 0 -14 354 -21 803 -6 441 -14 822 -17 846 -3 25 -2 42 4 40 5 -2 210 -195 456 -428z" stroke-width="10.0" stroke="blue" fill="black" />
</g>
</svg>