<?xml version='1.0' encoding='utf-8'?>
<svg xmlns="http://www.w3.org/2000/svg" viewBox="0 0 600 600" height="600.000000pt" width="600.000000pt"><g transform="matrix(-1 0 0 -1 600 600)" stroke-width="10.0" stroke="red" fill="black"><metadata stroke-width="10.0" stroke="red" fill="black">Created by potrace 1.16, written by Peter Selinger 2001-2019</metadata><g transform="translate(0.000000,600.000000) scale(0.100000,-0.100000)" fill="black" stroke="red" stroke-width="10.0"><path d="M2610 4589 l0 -691 -212 199 c-116 109 -243 227 -281 263 l-70 65 6 -315 7 -315 280 -275 281 -275 -1 -1352 c0 -743 3 -1353 8 -1355 4 -2 143 -2 310 0 253 3 302 6 302 18 0 8 7 14 15 14 13 0 15 88 16 723 1 397 4 842 8 988 l6 266 303 -269 c167 -148 306 -267 310 -264 3 4 10 135 15 292 l10 286 -114 112 c-63 61 -206 201 -319 311 l-204 199 -22 981 c-13 539 -23 1004 -23 1033 l-1 52 -315 0 -315 0 0 -691z m576 627 c1 0 11 -455 23 -1011 l22 -1010 320 -315 320 -315 -10 -218 c-5 -120 -11 -220 -13 -221 -1 -2 -142 121 -313 272 l-310 276 -5 -1031 c-3 -567 -9 -1035 -13 -1040 -5 -4 -125 -10 -268 -11 l-259 -4 0 1339 0 1339 -277 269 c-153 148 -281 274 -285 281 -7 11 -13 463 -6 469 2 1 127 -113 278 -255 l275 -258 3 729 2 730 258 -7 c141 -4 258 -7 258 -8z" stroke-width="10.0" stroke="red" fill="black" /></g></g></svg>