<?xml version='1.0' encoding='utf-8'?>
<svg xmlns="http://www.w3.org/2000/svg" version="1.0" width="600.000000pt" height="600.000000pt" viewBox="0 0 600.000000 600.000000" preserveAspectRatio="xMidYMid meet">
<metadata stroke-width="10.0" stroke="blue" fill="black">
Created by potrace 1.16, written by Peter Selinger 2001-2019
</metadata>
<g transform="translate(0.000000,600.000000) scale(0.100000,-0.100000)" fill="black" stroke="blue" stroke-width="10.0">
<path d="M3514 4803 c-274 -280 -502 -509 -505 -511 -4 -1 -207 219 -452 491 -503 559 -440 507 -619 507 l-98 0 1 -112 c1 -62 4 -170 8 -239 l6 -126 393 -422 c215 -231 392 -425 392 -431 0 -6 -180 -207 -400 -446 -220 -240 -400 -439 -400 -443 0 -4 182 -220 405 -481 l405 -473 -209 -216 c-114 -119 -294 -306 -399 -416 l-192 -200 0 -357 0 -358 38 0 c36 0 56 18 577 540 297 297 545 540 550 540 6 0 248 -238 537 -530 473 -476 530 -530 558 -530 l32 0 -6 193 c-3 105 -5 260 -6 342 l0 150 -367 389 c-203 214 -368 395 -368 401 0 7 169 228 375 491 206 262 380 485 387 494 11 16 7 21 -722 815 l-83 91 328 337 327 338 5 337 c3 185 5 338 3 340 -1 1 -226 -226 -501 -505z m-1190 157 c131 -146 338 -375 459 -509 l221 -245 478 485 477 484 1 -250 c0 -220 -2 -254 -17 -275 -9 -14 -161 -173 -337 -353 -177 -181 -322 -332 -324 -336 -1 -5 180 -207 403 -449 223 -243 405 -446 405 -450 0 -5 -26 -43 -58 -83 -32 -41 -207 -264 -390 -496 l-331 -422 379 -400 378 -400 6 -103 c3 -57 7 -193 9 -302 l2 -199 -532 538 -532 539 -378 -371 c-208 -204 -458 -452 -555 -551 l-178 -179 0 318 0 319 388 403 c213 222 395 413 405 424 18 21 15 25 -387 495 -223 260 -405 476 -403 480 1 3 182 202 402 442 220 240 401 439 402 444 2 4 -182 205 -407 447 l-410 440 0 177 c0 97 -3 184 -6 193 -6 14 5 15 92 13 l99 -3 239 -265z" stroke-width="10.0" stroke="blue" fill="black" />
<path d="M2690 3411 c-168 -180 -305 -332 -305 -338 0 -6 144 -178 319 -384 295 -345 321 -374 352 -375 31 -1 45 15 321 358 158 197 288 364 288 371 0 12 -647 689 -663 694 -4 2 -144 -145 -312 -326z m610 -57 c162 -168 295 -310 295 -315 0 -13 -529 -668 -540 -668 -10 0 -592 680 -597 697 -3 8 531 591 542 592 3 0 138 -138 300 -306z" stroke-width="10.0" stroke="blue" fill="black" />
</g>
</svg>