<?xml version='1.0' encoding='utf-8'?>
<svg xmlns="http://www.w3.org/2000/svg" version="1.0" width="600.000000pt" height="600.000000pt" viewBox="0 0 600.000000 600.000000" preserveAspectRatio="xMidYMid meet">
<metadata stroke-width="10.0" stroke="blue" fill="black">
Created by potrace 1.16, written by Peter Selinger 2001-2019
</metadata>
<g transform="translate(0.000000,600.000000) scale(0.100000,-0.100000)" fill="black" stroke="blue" stroke-width="10.0">
<path d="M4254 5316 c-127 -9 -156 -14 -175 -31 -13 -11 -123 -114 -244 -230 -121 -115 -234 -222 -252 -239 l-32 -29 -329 246 -329 247 -308 0 -308 0 6 -1642 c4 -904 7 -1970 7 -2370 l0 -728 208 0 c114 0 258 3 319 7 l113 6 2 1299 3 1299 350 -285 350 -285 42 42 c23 23 193 202 377 397 l335 355 1 220 0 220 -77 -3 c-174 -8 -137 15 -453 -287 -155 -148 -284 -269 -287 -268 -2 1 -153 126 -335 278 l-330 277 7 362 c4 198 10 401 14 449 l6 89 343 -261 c189 -144 346 -261 349 -261 2 0 182 167 399 370 l394 371 0 199 c0 110 -3 199 -7 198 -5 0 -76 -6 -159 -12z m115 -203 l-1 -158 -304 -285 c-168 -157 -336 -313 -374 -348 l-68 -62 -369 279 c-202 153 -370 277 -372 275 -6 -6 -30 -1017 -24 -1027 2 -4 158 -136 346 -293 188 -158 350 -294 359 -302 16 -14 37 4 250 210 128 124 262 252 298 285 l65 60 83 7 82 6 0 -178 0 -178 -351 -372 c-193 -205 -354 -372 -358 -372 -3 0 -172 136 -376 301 l-370 301 -3 -1352 -2 -1351 -259 3 c-143 2 -263 6 -266 10 -6 6 -27 4640 -22 4644 1 1 121 5 267 9 l265 7 343 -256 c188 -141 345 -256 349 -256 6 0 94 82 369 347 l192 183 103 9 c57 4 114 9 127 10 22 1 22 1 21 -156z" stroke-width="10.0" stroke="blue" fill="black" />
</g>
</svg>