<?xml version='1.0' encoding='utf-8'?>
<svg xmlns="http://www.w3.org/2000/svg" viewBox="0 0 600 600" height="600.000000pt" width="600.000000pt"><g transform="matrix(-1 0 0 -1 600 600)" stroke-width="10.0" stroke="red" fill="black"><metadata stroke-width="10.0" stroke="red" fill="black">Created by potrace 1.16, written by Peter Selinger 2001-2019</metadata><g transform="translate(0.000000,600.000000) scale(0.100000,-0.100000)" fill="black" stroke="red" stroke-width="10.0"><path d="M2327 4687 l-598 -592 496 -840 c273 -462 503 -852 511 -867 13 -26 -1 -57 -441 -944 l-455 -917 212 6 c134 4 214 10 216 17 2 5 12 10 21 10 14 0 96 159 340 658 178 361 326 661 330 665 4 4 156 -296 337 -667 l329 -675 323 -1 c179 0 322 4 322 9 0 5 -209 467 -465 1027 l-464 1018 425 753 c234 415 423 760 421 767 -5 13 -1240 1159 -1254 1163 -5 2 -277 -264 -606 -590z m1203 -32 c323 -299 590 -548 593 -552 2 -4 -187 -345 -420 -757 l-424 -750 455 -995 454 -996 -256 -3 c-141 -1 -261 -1 -267 2 -6 2 -166 321 -355 709 -190 388 -346 704 -348 703 -2 -2 -160 -323 -351 -712 l-348 -709 -161 -3 c-95 -1 -162 1 -162 7 0 5 132 274 293 598 161 323 358 719 437 880 l143 291 -503 853 c-277 469 -503 857 -504 863 -1 13 1111 1116 1125 1116 5 0 275 -245 599 -545z" stroke-width="10.0" stroke="red" fill="black" /><path d="M2714 4521 c-150 -152 -292 -299 -317 -327 l-46 -51 273 -459 c457 -771 506 -848 533 -842 9 2 36 39 60 83 25 44 180 318 345 609 291 512 300 529 282 546 -11 9 -198 176 -417 370 -303 268 -401 349 -411 341 -7 -6 -17 -7 -22 -2 -5 4 -127 -112 -280 -268z m686 -122 c212 -188 384 -347 384 -354 -1 -7 -106 -196 -234 -421 -128 -225 -270 -476 -316 -557 l-82 -148 -20 28 c-41 60 -652 1080 -702 1172 -10 20 13 46 282 321 161 165 295 300 298 300 3 0 178 -154 390 -341z" stroke-width="10.0" stroke="red" fill="black" /></g></g></svg>