<?xml version='1.0' encoding='utf-8'?>
<svg xmlns="http://www.w3.org/2000/svg" viewBox="0 0 600 600" height="600.000000pt" width="600.000000pt"><g transform="matrix(-1 0 0 -1 600 600)" stroke-width="10.0" stroke="red" fill="black"><metadata stroke-width="10.0" stroke="red" fill="black">Created by potrace 1.16, written by Peter Selinger 2001-2019</metadata><g transform="translate(0.000000,600.000000) scale(0.100000,-0.100000)" fill="black" stroke="red" stroke-width="10.0"><path d="M2280 4182 c0 -604 3 -1673 7 -2375 l6 -1277 194 0 c167 0 193 2 193 15 0 9 7 18 15 21 12 5 15 28 15 120 l0 114 490 432 c270 238 495 434 500 436 5 2 126 -99 270 -223 144 -125 262 -226 264 -224 1 2 69 79 149 171 81 91 147 171 147 176 0 12 -817 707 -830 707 -5 0 -172 -141 -370 -313 -199 -173 -363 -312 -364 -310 -2 1 -8 487 -15 1078 -6 591 -14 1226 -17 1410 l-6 335 253 -260 c139 -143 308 -316 375 -384 l121 -124 427 378 c235 208 425 381 424 386 -2 5 -75 84 -162 175 l-159 166 -176 -174 c-97 -95 -208 -204 -247 -241 l-71 -68 -409 475 -409 475 -307 1 -308 0 0 -1098z m990 578 c223 -259 413 -480 423 -491 17 -21 19 -19 265 219 l247 241 124 -124 c68 -68 121 -129 120 -134 -5 -14 -759 -681 -770 -681 -4 0 -186 184 -405 410 -219 225 -398 409 -399 407 -2 -3 34 -2860 37 -2975 l3 -103 393 341 392 341 363 -307 c199 -169 370 -314 379 -323 17 -16 11 -24 -98 -149 -63 -72 -117 -132 -120 -132 -4 0 -243 205 -455 392 l-66 57 -521 -460 -522 -460 0 -119 0 -120 -160 0 -160 0 0 1073 c0 591 -3 1635 -7 2320 l-6 1247 269 0 269 -1 405 -469z" stroke-width="10.0" stroke="red" fill="black" /></g></g></svg>