<?xml version='1.0' encoding='utf-8'?>
<svg xmlns="http://www.w3.org/2000/svg" viewBox="0 0 600 600" height="600.000000pt" width="600.000000pt"><g transform="matrix(-1 0 0 -1 600 600)" stroke-width="10.0" stroke="red" fill="black"><metadata stroke-width="10.0" stroke="red" fill="black">Created by potrace 1.16, written by Peter Selinger 2001-2019</metadata><g transform="translate(0.000000,600.000000) scale(0.100000,-0.100000)" fill="black" stroke="red" stroke-width="10.0"><path d="M1944 2908 c4 -1305 8 -2374 9 -2374 1 -1 140 1 310 4 235 4 307 8 307 17 0 7 6 15 13 18 9 3 10 413 1 2038 -6 1119 -9 2035 -8 2037 1 2 80 -68 175 -155 96 -87 219 -198 273 -246 165 -146 444 -402 445 -407 1 -7 -292 -355 -322 -382 -14 -13 -94 -106 -178 -208 -83 -102 -158 -193 -166 -202 -14 -15 48 -136 607 -1195 343 -648 642 -1213 665 -1256 l42 -78 173 247 172 248 -30 56 c-16 30 -258 484 -537 1009 -449 843 -506 956 -496 974 7 11 169 190 359 399 191 208 348 383 350 388 2 5 -346 331 -774 724 l-777 716 -310 0 -310 0 7 -2372z m1336 1626 c410 -378 745 -690 745 -694 0 -5 -161 -184 -358 -400 l-357 -391 24 -42 c13 -23 256 -480 541 -1014 322 -607 514 -977 509 -985 -50 -83 -258 -368 -265 -361 -4 4 -290 541 -634 1192 l-625 1183 37 47 c21 25 172 207 336 404 190 228 297 365 295 376 -2 10 -217 212 -478 451 -261 238 -487 444 -502 458 -15 14 -29 24 -31 21 -2 -2 2 -942 8 -2089 6 -1147 11 -2086 10 -2086 0 -1 -117 -4 -261 -8 l-261 -6 -6 1357 c-4 747 -7 1789 -7 2316 l0 957 268 0 267 0 745 -686z" stroke-width="10.0" stroke="red" fill="black" /></g></g></svg>