<?xml version='1.0' encoding='utf-8'?>
<svg xmlns="http://www.w3.org/2000/svg" version="1.0" width="600.000000pt" height="600.000000pt" viewBox="0 0 600.000000 600.000000" preserveAspectRatio="xMidYMid meet">
<metadata stroke-width="10.0" stroke="blue" fill="black">
Created by potrace 1.16, written by Peter Selinger 2001-2019
</metadata>
<g transform="translate(0.000000,600.000000) scale(0.100000,-0.100000)" fill="black" stroke="blue" stroke-width="10.0">
<path d="M1700 3938 c0 -739 3 -1420 7 -1515 l6 -171 315 5 315 6 739 349 c406 191 742 348 747 348 7 0 21 -1306 21 -2006 0 -171 3 -332 6 -358 l7 -46 277 0 c238 0 279 2 284 15 3 8 13 15 22 15 16 0 17 37 11 548 -4 301 -7 1019 -7 1595 l0 1049 -337 -4 -338 -3 -703 -339 c-386 -187 -704 -337 -706 -335 -2 2 -9 387 -15 854 -6 468 -14 959 -17 1093 l-6 242 -314 0 -314 0 0 -1342z m580 1165 c1 -260 29 -2095 33 -2099 2 -2 335 156 740 351 l736 355 305 0 306 0 0 -1555 0 -1555 -244 0 -244 0 -6 527 c-3 291 -9 842 -12 1226 -4 383 -8 697 -9 697 -1 0 -350 -165 -776 -366 l-774 -365 -287 -6 -287 -6 -3 1454 c-2 800 -2 1457 0 1462 2 4 120 7 263 7 l259 0 0 -127z" stroke-width="10.0" stroke="blue" fill="black" />
</g>
</svg>