<?xml version='1.0' encoding='utf-8'?>
<svg xmlns="http://www.w3.org/2000/svg" viewBox="0 0 600 600" height="600.000000pt" width="600.000000pt"><g transform="matrix(-1 0 0 -1 600 600)" stroke-width="10.0" stroke="red" fill="black"><metadata stroke-width="10.0" stroke="red" fill="black">Created by potrace 1.16, written by Peter Selinger 2001-2019</metadata><g transform="translate(0.000000,600.000000) scale(0.100000,-0.100000)" fill="black" stroke="red" stroke-width="10.0"><path d="M2349 4653 l-632 -629 162 -147 c90 -81 166 -147 171 -147 4 0 140 130 302 289 l295 290 6 -1312 c4 -722 7 -1570 7 -1884 l0 -573 183 0 c268 0 427 10 427 27 0 7 7 13 15 13 13 0 15 154 15 1323 0 728 3 1575 7 1881 l6 558 313 -313 312 -312 25 19 c13 11 93 86 178 167 l154 147 -40 39 c-60 58 -1228 1153 -1252 1174 -22 19 -23 17 -654 -610z m1255 -28 c333 -313 606 -573 606 -576 0 -3 -61 -63 -136 -134 l-136 -128 -344 344 -344 344 0 -1330 c0 -732 -3 -1603 -7 -1936 l-6 -606 -256 -6 c-141 -3 -258 -3 -260 -1 -2 2 -7 819 -12 1816 -4 997 -8 1862 -8 1923 l-1 110 -324 -324 -325 -325 -77 70 c-43 38 -100 89 -127 114 l-49 45 588 588 c324 323 594 586 601 584 6 -1 284 -258 617 -572z" stroke-width="10.0" stroke="red" fill="black" /></g></g></svg>