<svg xmlns="http://www.w3.org/2000/svg" viewBox="0 0 600 600" width="600.000000pt" height="600.000000pt"><g xmlns="http://www.w3.org/2000/svg" transform="matrix(0 1 -1 0 600 -0)"><g xmlns="http://www.w3.org/2000/svg" transform="matrix(0 1 -1 0 600 -0)"><metadata stroke-width="10.0" stroke="red" fill="black">Created by potrace 1.16, written by Peter Selinger 2001-2019</metadata><g transform="translate(0.000000,600.000000) scale(0.100000,-0.100000)" fill="black" stroke="blue" stroke-width="10.0"><path d="M2287 3528 c2 -964 6 -2034 9 -2377 l6 -624 127 6 c69 4 204 7 299 7 146 0 172 2 172 15 0 8 6 15 14 15 21 0 24 66 37 695 6 303 14 573 18 601 l6 52 548 492 c466 418 548 495 543 514 -3 11 -6 102 -6 201 l0 180 -564 539 -563 539 -7 156 c-3 86 -9 288 -12 449 l-7 292 -311 0 -311 0 2 -1752z m578 1248 c4 -208 10 -389 14 -401 3 -13 256 -262 561 -554 495 -474 556 -535 562 -569 4 -20 7 -103 7 -184 l1 -147 -532 -477 c-293 -262 -540 -484 -549 -493 -15 -14 -19 -93 -33 -680 -9 -366 -18 -666 -20 -668 -1 -2 -120 -6 -263 -10 l-260 -6 -6 1629 c-4 896 -7 1938 -7 2316 l0 688 253 2 252 3 6 -35 c4 -19 10 -205 14 -414z" stroke-width="10.0" stroke="blue" fill="black" /><path d="M2890 3139 l0 -754 24 -11 c22 -10 51 13 446 356 232 202 422 370 421 374 0 4 -170 156 -378 338 -208 182 -408 358 -445 391 l-68 59 0 -753z m453 282 c196 -172 357 -316 356 -319 0 -8 -735 -646 -749 -650 -7 -2 -10 232 -10 659 l0 662 23 -20 c12 -11 183 -160 380 -332z" stroke-width="10.0" stroke="blue" fill="black" /></g></g></g></svg>