<?xml version='1.0' encoding='utf-8'?>
<svg xmlns="http://www.w3.org/2000/svg" version="1.0" width="600.000000pt" height="600.000000pt" viewBox="0 0 600.000000 600.000000" preserveAspectRatio="xMidYMid meet">
<metadata stroke-width="10.0" stroke="blue" fill="black">
Created by potrace 1.16, written by Peter Selinger 2001-2019
</metadata>
<g transform="translate(0.000000,600.000000) scale(0.100000,-0.100000)" fill="black" stroke="blue" stroke-width="10.0">
<path d="M1765 3038 c3 -1234 8 -2303 11 -2375 l6 -133 282 0 c154 0 291 3 304 6 12 4 22 13 22 20 0 8 7 14 15 14 13 0 14 42 10 333 -8 574 -15 3531 -8 3523 4 -3 433 -856 954 -1894 l947 -1887 152 -3 151 -3 -3 223 -3 223 -1114 2098 -1114 2097 -309 0 -308 0 5 -2242z m1688 98 l1107 -2084 0 -176 0 -176 -109 0 -109 0 -993 1978 c-545 1087 -994 1979 -997 1982 -2 3 -1 -912 2 -2032 l7 -2038 -264 0 -264 0 -6 1168 c-5 871 -10 3391 -7 3455 0 4 118 7 263 7 l263 0 1107 -2084z" stroke-width="10.0" stroke="blue" fill="black" />
</g>
</svg>