<?xml version='1.0' encoding='utf-8'?>
<svg xmlns="http://www.w3.org/2000/svg" viewBox="0 0 600 600" height="600.000000pt" width="600.000000pt"><g transform="matrix(-1 0 0 -1 600 600)" stroke-width="10.0" stroke="red" fill="black"><metadata stroke-width="10.0" stroke="red" fill="black">Created by potrace 1.16, written by Peter Selinger 2001-2019</metadata><g transform="translate(0.000000,600.000000) scale(0.100000,-0.100000)" fill="black" stroke="red" stroke-width="10.0"><path d="M3556 4813 c-120 -268 -222 -492 -227 -498 -5 -5 -9 17 -9 55 0 126 -29 913 -34 917 -3 3 -142 2 -310 -2 l-306 -8 -2 -554 -3 -554 -269 556 -270 555 -268 0 c-147 0 -268 -1 -268 -3 0 -2 243 -458 539 -1014 l539 -1010 7 -1363 8 -1363 210 6 c116 4 254 7 309 7 80 0 98 3 98 15 0 8 6 15 13 15 12 0 15 236 21 1401 l8 1402 482 956 c266 526 483 957 482 957 -1 1 -120 5 -266 9 l-266 7 -218 -489z m199 -498 l-466 -925 -9 -1392 c-5 -765 -12 -1394 -16 -1397 -6 -6 -523 -15 -525 -9 0 2 -4 605 -9 1340 l-9 1337 -520 976 c-287 537 -521 979 -521 982 0 5 412 -5 416 -10 1 -1 142 -292 314 -647 172 -355 314 -647 317 -650 3 -3 2 291 -2 653 l-8 657 260 0 260 0 6 -147 c4 -82 12 -330 18 -553 6 -223 14 -417 18 -431 5 -21 56 85 266 557 l260 584 208 0 209 0 -467 -925z" stroke-width="10.0" stroke="red" fill="black" /></g></g></svg>