<?xml version='1.0' encoding='utf-8'?>
<svg xmlns="http://www.w3.org/2000/svg" viewBox="0 0 600 600" height="600.000000pt" width="600.000000pt"><g transform="matrix(-1 0 0 -1 600 600)" stroke-width="10.0" stroke="red" fill="black"><metadata stroke-width="10.0" stroke="red" fill="black">Created by potrace 1.16, written by Peter Selinger 2001-2019</metadata><g transform="translate(0.000000,600.000000) scale(0.100000,-0.100000)" fill="black" stroke="red" stroke-width="10.0"><path d="M1705 3038 c3 -1234 8 -2303 11 -2375 l6 -133 282 0 c154 0 291 3 304 6 12 4 22 13 22 20 0 8 7 14 15 14 13 0 14 42 10 333 -3 182 -7 1052 -9 1932 l-4 1600 882 -1770 c485 -974 918 -1843 961 -1932 l78 -163 149 0 148 0 -6 252 c-4 139 -10 260 -14 268 -4 8 -506 954 -1115 2103 l-1108 2087 -309 0 -308 0 5 -2242z m1688 98 l1107 -2084 0 -216 0 -216 -98 0 -99 0 -983 1978 c-540 1087 -994 1997 -1007 2022 l-24 45 6 -2037 6 -2038 -264 0 -264 0 -6 1168 c-5 871 -10 3391 -7 3455 0 4 118 7 263 7 l263 0 1107 -2084z" stroke-width="10.0" stroke="red" fill="black" /><path d="M2630 1435 c0 -771 2 -875 15 -875 8 0 15 -7 15 -15 0 -13 28 -15 194 -15 l193 0 -4 243 c-2 133 -8 460 -12 727 l-8 485 -70 160 -69 160 -127 3 -127 3 0 -876z m277 674 l62 -146 12 -687 c6 -378 9 -689 6 -693 -3 -3 -71 -2 -150 2 l-144 7 -7 825 c-4 453 -4 828 0 834 3 5 39 9 82 7 l77 -3 62 -146z" stroke-width="10.0" stroke="red" fill="black" /></g></g></svg>